<svg width="454" height="66" viewBox="0 0 454 66" fill="none" xmlns="http://www.w3.org/2000/svg">
<path d="M453.2 25H329V65H453.2V25Z" fill="#DEB866"/>
<path d="M403.8 56.6999C401.5 56.6999 399.6 56.1999 398 55.1999C396.5 54.1999 395.4 52.7999 394.8 51.0999L399.2 48.5C400.1 50.6 401.7 51.5999 403.9 51.5999C405.9 51.5999 407 50.9999 407 49.7999C407 49.0999 406.7 48.5999 406 48.2999C405.4 47.8999 404.1 47.5 402.3 47C401.4 46.7 400.5 46.4999 399.8 46.0999C399.1 45.7999 398.4 45.3999 397.7 44.7999C397 44.2999 396.5 43.5999 396.2 42.7999C395.9 41.9999 395.7 41.0999 395.7 40.0999C395.7 37.9999 396.4 36.3999 397.9 35.0999C399.4 33.8999 401.2 33.2 403.2 33.2C405 33.2 406.7 33.6 408.1 34.5C409.5 35.4 410.6 36.5999 411.4 38.2999L407.1 40.7999C406.7 39.8999 406.2 39.3 405.6 38.9C405 38.4 404.2 38.2 403.2 38.2C402.4 38.2 401.8 38.4 401.4 38.7C401 39 400.8 39.4 400.8 39.9C400.8 40.5 401.1 40.8999 401.6 41.2999C402.1 41.6999 403.2 42.2 404.9 42.7C405.8 43 406.5 43.2 407 43.4C407.5 43.6 408.1 43.8999 408.9 44.2999C409.7 44.6999 410.3 45.0999 410.6 45.5999C411 45.9999 411.4 46.5999 411.7 47.2999C412 47.9999 412.2 48.8 412.2 49.7C412.2 51.8 411.4 53.5 409.9 54.8C408.3 56.1 406.2 56.6999 403.8 56.6999Z" fill="white"/>
<path d="M389.7 54.6C388.1 56 386 56.7 383.5 56.7C381 56.7 378.9 56 377.3 54.6C375.7 53.2 374.9 51.3 374.9 49V33.8H380V48.6C380 50.7 381.2 51.8 383.5 51.8C385.9 51.8 387 50.7 387 48.6V33.8H392.1V49C392.2 51.4 391.4 53.2 389.7 54.6Z" fill="white"/>
<path d="M365 51.3H373V56.3001H359.8V33.8H364.9V51.3H365Z" fill="white"/>
<path d="M349.4 33.8C351.6 33.8 353.5 34.6 355 36.1C356.5 37.6 357.3 39.4 357.3 41.6C357.3 43.8 356.5 45.6 355 47.1C353.5 48.6 351.6 49.4001 349.4 49.4001H346V56.5H340.9V33.8H349.4ZM349.4 44.4001C350.2 44.4001 350.8 44.1 351.4 43.6C351.9 43 352.2 42.4 352.2 41.5C352.2 40.6 351.9 40.0001 351.4 39.4001C350.9 38.8001 350.2 38.6 349.4 38.6H346V44.4001H349.4Z" fill="white"/>
<path fill-rule="evenodd" clip-rule="evenodd" d="M419.9 42.5H440.4L438.4 47.6H417.9L419.9 42.5Z" fill="#FFE889"/>
<path fill-rule="evenodd" clip-rule="evenodd" d="M426.5 56.3001V35.8L431.6 33.8V54.3001L426.5 56.3001Z" fill="#FFE889"/>
<path d="M52 13V53H12L0 65H64V1L52 13Z" fill="#DEB866"/>
<path d="M30 31V1L0 31H30Z" fill="#DEB866"/>
<path d="M35 13.0001V35.9999H12L0 47.9999H47V1L35 13.0001Z" fill="#DEB866"/>
<path d="M302.95 15.1664C301.064 15.1664 299.475 14.4631 297.986 13.157C296.596 11.7504 296 10.0424 296 8.13344C296 6.22449 296.695 4.61695 297.986 3.10989C299.376 1.7033 301.064 1 302.95 1C304.936 1 306.525 1.7033 307.915 3.10989C309.305 4.51648 310 6.22449 310 8.13344C310 10.0424 309.305 11.6499 307.915 13.157C306.525 14.4631 304.837 15.1664 302.95 15.1664ZM297.291 65V20.4914H308.61V65H297.291Z" fill="white"/>
<path d="M278 65V0H289V65H278Z" fill="white"/>
<path d="M259 65V0H270V65H259Z" fill="white"/>
<path d="M246.185 59.2714C241.576 63.7906 236.064 66 229.45 66C222.836 66 217.324 63.7906 212.714 59.2714C208.205 54.6517 206 49.1282 206 42.5C206 35.8718 208.205 30.3483 212.714 25.8291C217.324 21.2094 222.836 19 229.45 19C236.064 19 241.576 21.3098 246.185 25.8291C250.795 30.3483 253 35.8718 253 42.5C253 49.1282 250.695 54.7521 246.185 59.2714ZM220.832 51.438C223.136 53.7479 226.043 54.953 229.45 54.953C232.857 54.953 235.763 53.7479 238.068 51.438C240.373 49.1282 241.576 46.2158 241.576 42.6004C241.576 39.0855 240.373 36.0727 238.068 33.7628C235.763 31.453 232.857 30.2479 229.45 30.2479C226.043 30.2479 223.136 31.453 220.832 33.7628C218.627 36.0727 217.424 38.985 217.424 42.6004C217.525 46.1154 218.627 49.0278 220.832 51.438Z" fill="white"/>
<path d="M192.546 28.4624C193.651 25.6748 195.357 23.4845 197.767 22.0907C200.277 20.6969 202.988 20 206 20V32.7434C202.486 32.3451 199.373 33.042 196.562 34.8341C193.851 36.6261 192.446 39.7124 192.446 43.8938V65H181V20.896H192.446V28.4624H192.546Z" fill="white"/>
<path d="M157.716 66C150.954 66 145.303 63.7906 140.761 59.2714C136.321 54.7521 134 49.1282 134 42.5C134 35.8718 136.22 30.2479 140.761 25.7286C145.303 21.2094 150.954 19 157.716 19C162.055 19 165.991 20.0043 169.624 22.1133C173.156 24.2222 175.881 26.9338 177.798 30.4487L167.908 36.2735C167 34.4658 165.688 32.9594 163.771 31.9551C161.954 30.8504 159.936 30.3483 157.716 30.3483C154.284 30.3483 151.358 31.5534 149.138 33.8632C146.917 36.0726 145.706 38.985 145.706 42.6004C145.706 46.1154 146.817 49.0278 149.138 51.3376C151.358 53.547 154.284 54.7521 157.716 54.7521C160.037 54.7521 162.055 54.25 163.872 53.2457C165.688 52.141 167.101 50.735 168.009 48.9274L178 54.6517C175.982 58.1667 173.257 60.9786 169.725 63.0876C166.092 64.9957 162.156 66 157.716 66Z" fill="white"/>
<path d="M107.866 66C101.65 66 96.3503 64.5935 92.0701 61.881C87.7898 59.068 84.7325 55.3509 83 50.5286L93.7006 44.4003C96.1465 50.7295 101.038 53.9444 108.274 53.9444C111.739 53.9444 114.287 53.3416 115.917 52.0356C117.548 50.83 118.363 49.2226 118.363 47.3138C118.363 45.1036 117.344 43.3957 115.408 42.1901C113.369 40.9845 109.904 39.5781 104.707 38.1716C101.854 37.3679 99.5095 36.4637 97.4713 35.66C95.535 34.8563 93.5987 33.7512 91.5605 32.3447C89.6242 30.9382 88.1975 29.1298 87.1783 27.0201C86.1592 24.9104 85.6497 22.3988 85.6497 19.5858C85.6497 13.9598 87.6879 9.43895 91.6624 6.12365C95.7389 2.70788 100.631 1 106.439 1C111.535 1 116.019 2.20557 119.892 4.71716C123.764 7.12829 126.822 10.544 129.064 14.9645L118.567 20.8918C116.019 15.5672 112.045 12.8547 106.439 12.8547C103.892 12.8547 101.752 13.4575 100.325 14.6631C98.8981 15.7682 98.1847 17.2751 98.1847 19.0835C98.1847 21.0927 99 22.5997 100.631 23.9057C102.363 25.1113 105.522 26.4173 110.21 27.8238C112.146 28.4266 113.573 28.9289 114.592 29.2303C115.611 29.5317 116.936 30.034 118.669 30.7373C120.401 31.4405 121.726 32.0433 122.643 32.6461C123.56 33.2488 124.682 34.0526 125.904 35.0572C127.127 36.0618 128.045 37.0665 128.656 38.1716C129.369 39.2767 129.879 40.5827 130.287 42.0897C130.796 43.5966 131 45.204 131 47.0124C131 52.7388 128.86 57.3601 124.58 60.7759C120.197 64.2921 114.694 66 107.866 66Z" fill="white"/>
</svg>
